<svg width="300" height="400" viewBox="0 0 300 400" xmlns="http://www.w3.org/2000/svg">
  <!-- Background Gradient Sky -->
  <defs>
    <linearGradient id="skyGradient" x1="0%" y1="0%" x2="0%" y2="100%">
      <stop offset="0%" style="stop-color:#87CEEB;stop-opacity:1" />
      <stop offset="100%" style="stop-color:#98FB98;stop-opacity:1" />
    </linearGradient>
    <linearGradient id="robotGradient" x1="0%" y1="0%" x2="0%" y2="100%">
      <stop offset="0%" style="stop-color:#E8E8E8;stop-opacity:1" />
      <stop offset="100%" style="stop-color:#C0C0C0;stop-opacity:1" />
    </linearGradient>
    <linearGradient id="screenGlow" x1="0%" y1="0%" x2="0%" y2="100%">
      <stop offset="0%" style="stop-color:#00FFFF;stop-opacity:0.8" />
      <stop offset="100%" style="stop-color:#0080FF;stop-opacity:0.8" />
    </linearGradient>
  </defs>
  
  <!-- Sky Background -->
  <rect width="300" height="200" fill="url(#skyGradient)"/>
  
  <!-- Ground -->
  <rect x="0" y="200" width="300" height="200" fill="#8B4513"/>
  
  <!-- Tomato Field Rows -->
  <g opacity="0.8">
    <!-- Row 1 -->
    <rect x="20" y="220" width="260" height="15" fill="#228B22" rx="7"/>
    <circle cx="40" cy="227" r="4" fill="#FF6347"/>
    <circle cx="60" cy="227" r="4" fill="#FF4500"/>
    <circle cx="80" cy="227" r="4" fill="#FF6347"/>
    <circle cx="100" cy="227" r="4" fill="#FF4500"/>
    <circle cx="120" cy="227" r="4" fill="#FF6347"/>
    <circle cx="140" cy="227" r="4" fill="#FF4500"/>
    <circle cx="160" cy="227" r="4" fill="#FF6347"/>
    <circle cx="180" cy="227" r="4" fill="#FF4500"/>
    <circle cx="200" cy="227" r="4" fill="#FF6347"/>
    <circle cx="220" cy="227" r="4" fill="#FF4500"/>
    <circle cx="240" cy="227" r="4" fill="#FF6347"/>
    <circle cx="260" cy="227" r="4" fill="#FF4500"/>
    
    <!-- Row 2 -->
    <rect x="20" y="250" width="260" height="15" fill="#228B22" rx="7"/>
    <circle cx="45" cy="257" r="4" fill="#FF6347"/>
    <circle cx="65" cy="257" r="4" fill="#FF4500"/>
    <circle cx="85" cy="257" r="4" fill="#FF6347"/>
    <circle cx="105" cy="257" r="4" fill="#FF4500"/>
    <circle cx="125" cy="257" r="4" fill="#FF6347"/>
    <circle cx="145" cy="257" r="4" fill="#FF4500"/>
    <circle cx="165" cy="257" r="4" fill="#FF6347"/>
    <circle cx="185" cy="257" r="4" fill="#FF4500"/>
    <circle cx="205" cy="257" r="4" fill="#FF6347"/>
    <circle cx="225" cy="257" r="4" fill="#FF4500"/>
    <circle cx="245" cy="257" r="4" fill="#FF6347"/>
    <circle cx="265" cy="257" r="4" fill="#FF4500"/>
    
    <!-- Row 3 -->
    <rect x="20" y="280" width="260" height="15" fill="#228B22" rx="7"/>
    <circle cx="40" cy="287" r="4" fill="#FF6347"/>
    <circle cx="60" cy="287" r="4" fill="#FF4500"/>
    <circle cx="80" cy="287" r="4" fill="#FF6347"/>
    <circle cx="100" cy="287" r="4" fill="#FF4500"/>
    <circle cx="120" cy="287" r="4" fill="#FF6347"/>
    <circle cx="140" cy="287" r="4" fill="#FF4500"/>
    <circle cx="160" cy="287" r="4" fill="#FF6347"/>
    <circle cx="180" cy="287" r="4" fill="#FF4500"/>
    <circle cx="200" cy="287" r="4" fill="#FF6347"/>
    <circle cx="220" cy="287" r="4" fill="#FF4500"/>
    <circle cx="240" cy="287" r="4" fill="#FF6347"/>
    <circle cx="260" cy="287" r="4" fill="#FF4500"/>
    
    <!-- Row 4 -->
    <rect x="20" y="310" width="260" height="15" fill="#228B22" rx="7"/>
    <circle cx="45" cy="317" r="4" fill="#FF6347"/>
    <circle cx="65" cy="317" r="4" fill="#FF4500"/>
    <circle cx="85" cy="317" r="4" fill="#FF6347"/>
    <circle cx="105" cy="317" r="4" fill="#FF4500"/>
    <circle cx="125" cy="317" r="4" fill="#FF6347"/>
    <circle cx="145" cy="317" r="4" fill="#FF4500"/>
    <circle cx="165" cy="317" r="4" fill="#FF6347"/>
    <circle cx="185" cy="317" r="4" fill="#FF4500"/>
    <circle cx="205" cy="317" r="4" fill="#FF6347"/>
    <circle cx="225" cy="317" r="4" fill="#FF4500"/>
    <circle cx="245" cy="317" r="4" fill="#FF6347"/>
    <circle cx="265" cy="317" r="4" fill="#FF4500"/>
    
    <!-- Row 5 -->
    <rect x="20" y="340" width="260" height="15" fill="#228B22" rx="7"/>
    <circle cx="40" cy="347" r="4" fill="#FF6347"/>
    <circle cx="60" cy="347" r="4" fill="#FF4500"/>
    <circle cx="80" cy="347" r="4" fill="#FF6347"/>
    <circle cx="100" cy="347" r="4" fill="#FF4500"/>
    <circle cx="120" cy="347" r="4" fill="#FF6347"/>
    <circle cx="140" cy="347" r="4" fill="#FF4500"/>
    <circle cx="160" cy="347" r="4" fill="#FF6347"/>
    <circle cx="180" cy="347" r="4" fill="#FF4500"/>
    <circle cx="200" cy="347" r="4" fill="#FF6347"/>
    <circle cx="220" cy="347" r="4" fill="#FF4500"/>
    <circle cx="240" cy="347" r="4" fill="#FF6347"/>
    <circle cx="260" cy="347" r="4" fill="#FF4500"/>
  </g>
  
  <!-- Robot Shadow -->
  <ellipse cx="150" cy="380" rx="60" ry="12" fill="#000000" opacity="0.3"/>
  
  <!-- AI Robot Body -->
  <!-- Robot Base/Tracks -->
  <rect x="120" y="320" width="60" height="25" rx="12" fill="#2F2F2F"/>
  <rect x="125" y="325" width="50" height="15" rx="7" fill="#1A1A1A"/>
  <!-- Track details -->
  <circle cx="130" cy="332" r="3" fill="#404040"/>
  <circle cx="140" cy="332" r="3" fill="#404040"/>
  <circle cx="150" cy="332" r="3" fill="#404040"/>
  <circle cx="160" cy="332" r="3" fill="#404040"/>
  <circle cx="170" cy="332" r="3" fill="#404040"/>
  
  <!-- Robot Lower Body -->
  <rect x="130" y="280" width="40" height="45" rx="8" fill="url(#robotGradient)"/>
  <rect x="135" y="285" width="30" height="35" rx="5" fill="#B8B8B8"/>
  
  <!-- Robot Upper Body -->
  <rect x="125" y="220" width="50" height="65" rx="10" fill="url(#robotGradient)"/>
  <rect x="130" y="225" width="40" height="55" rx="8" fill="#D3D3D3"/>
  
  <!-- Robot Arms -->
  <!-- Left Arm -->
  <rect x="105" y="240" width="15" height="35" rx="7" fill="url(#robotGradient)"/>
  <rect x="107" y="242" width="11" height="31" rx="5" fill="#C0C0C0"/>
  <!-- Left Hand/Tool -->
  <circle cx="112" cy="280" r="8" fill="#FFD700"/>
  <rect x="108" y="276" width="8" height="8" rx="2" fill="#FF6347"/>
  
  <!-- Right Arm -->
  <rect x="180" y="240" width="15" height="35" rx="7" fill="url(#robotGradient)"/>
  <rect x="182" y="242" width="11" height="31" rx="5" fill="#C0C0C0"/>
  <!-- Right Hand/Scanner -->
  <circle cx="187" cy="280" r="8" fill="#00FFFF"/>
  <circle cx="187" cy="280" r="5" fill="#0080FF"/>
  <circle cx="187" cy="280" r="2" fill="#FFFFFF"/>
  
  <!-- Robot Head -->
  <rect x="135" y="180" width="30" height="45" rx="15" fill="url(#robotGradient)"/>
  <rect x="137" y="182" width="26" height="41" rx="13" fill="#E8E8E8"/>
  
  <!-- Robot Face Screen -->
  <rect x="140" y="190" width="20" height="25" rx="5" fill="#000000"/>
  <rect x="141" y="191" width="18" height="23" rx="4" fill="url(#screenGlow)"/>
  
  <!-- AI Eyes on Screen -->
  <circle cx="145" cy="198" r="3" fill="#FFFFFF"/>
  <circle cx="155" cy="198" r="3" fill="#FFFFFF"/>
  <circle cx="145" cy="198" r="1.5" fill="#000000"/>
  <circle cx="155" cy="198" r="1.5" fill="#000000"/>
  
  <!-- AI Mouth/Expression -->
  <rect x="143" y="205" width="14" height="2" rx="1" fill="#FFFFFF"/>
  <rect x="145" y="208" width="10" height="1" rx="0.5" fill="#FFFFFF"/>
  
  <!-- Robot Antenna -->
  <rect x="149" y="170" width="2" height="15" fill="#C0C0C0"/>
  <circle cx="150" cy="168" r="3" fill="#FF0000"/>
  <circle cx="150" cy="168" r="1.5" fill="#FFFFFF"/>
  
  <!-- Chest Panel -->
  <rect x="140" y="235" width="20" height="15" rx="3" fill="#000000"/>
  <rect x="141" y="236" width="18" height="13" rx="2" fill="#00FF00"/>
  <circle cx="145" cy="242" r="1" fill="#FFFFFF"/>
  <circle cx="150" cy="242" r="1" fill="#FFFFFF"/>
  <circle cx="155" cy="242" r="1" fill="#FFFFFF"/>
  
  <!-- Status Lights -->
  <circle cx="140" cy="230" r="2" fill="#00FF00"/>
  <circle cx="160" cy="230" r="2" fill="#0080FF"/>
  
  <!-- Robot Details -->
  <!-- Joints -->
  <circle cx="112" cy="257" r="3" fill="#808080"/>
  <circle cx="187" cy="257" r="3" fill="#808080"/>
  <circle cx="150" cy="285" r="3" fill="#808080"/>
  
  <!-- Ventilation Grilles -->
  <rect x="132" y="260" width="36" height="2" fill="#808080"/>
  <rect x="132" y="265" width="36" height="2" fill="#808080"/>
  <rect x="132" y="270" width="36" height="2" fill="#808080"/>
  
  <!-- AI Scanning Beam -->
  <g opacity="0.6">
    <path d="M187 280 L220 300 L220 320 L187 288 Z" fill="#00FFFF"/>
    <path d="M187 280 L240 310 L240 330 L187 288 Z" fill="#0080FF" opacity="0.4"/>
  </g>
  
  <!-- Data/Analysis Display -->
  <g opacity="0.8">
    <rect x="210" y="180" width="80" height="50" rx="5" fill="#000000"/>
    <rect x="212" y="182" width="76" height="46" rx="3" fill="#001122"/>
    <text x="215" y="195" font-family="monospace" font-size="6" fill="#00FF00">TOMATO ANALYSIS</text>
    <text x="215" y="205" font-family="monospace" font-size="5" fill="#00FFFF">Health: 98%</text>
    <text x="215" y="213" font-family="monospace" font-size="5" fill="#00FFFF">Growth: Optimal</text>
    <text x="215" y="221" font-family="monospace" font-size="5" fill="#00FFFF">Moisture: 75%</text>
    <!-- Data bars -->
    <rect x="215" y="225" width="30" height="2" fill="#00FF00"/>
    <rect x="250" y="225" width="25" height="2" fill="#FFFF00"/>
    <rect x="215" y="228" width="35" height="2" fill="#00FF00"/>
  </g>
  
  <!-- Floating Data Points -->
  <g opacity="0.7">
    <circle cx="80" cy="200" r="2" fill="#00FFFF"/>
    <text x="85" y="203" font-family="monospace" font-size="4" fill="#00FFFF">+2.1°C</text>
    
    <circle cx="200" cy="190" r="2" fill="#00FF00"/>
    <text x="205" y="193" font-family="monospace" font-size="4" fill="#00FF00">pH 6.8</text>
    
    <circle cx="120" cy="210" r="2" fill="#FFFF00"/>
    <text x="125" y="213" font-family="monospace" font-size="4" fill="#FFFF00">N-85%</text>
  </g>
  
  <!-- Clouds in background -->
  <g opacity="0.4">
    <ellipse cx="50" cy="50" rx="20" ry="10" fill="#FFFFFF"/>
    <ellipse cx="60" cy="45" rx="15" ry="8" fill="#FFFFFF"/>
    <ellipse cx="40" cy="45" rx="12" ry="6" fill="#FFFFFF"/>
    
    <ellipse cx="220" cy="60" rx="25" ry="12" fill="#FFFFFF"/>
    <ellipse cx="235" cy="55" rx="18" ry="9" fill="#FFFFFF"/>
    <ellipse cx="205" cy="55" rx="15" ry="7" fill="#FFFFFF"/>
  </g>
  
  <!-- Sun -->
  <circle cx="250" cy="40" r="15" fill="#FFD700"/>
  <g stroke="#FFD700" stroke-width="2" opacity="0.8">
    <line x1="250" y1="15" x2="250" y2="25"/>
    <line x1="275" y1="40" x2="265" y2="40"/>
    <line x1="250" y1="65" x2="250" y2="55"/>
    <line x1="225" y1="40" x2="235" y2="40"/>
    <line x1="267" y1="23" x2="261" y2="29"/>
    <line x1="267" y1="57" x2="261" y2="51"/>
    <line x1="233" y1="57" x2="239" y2="51"/>
    <line x1="233" y1="23" x2="239" y2="29"/>
  </g>
</svg>